<mxfile host="app.diagrams.net" agent="Mozilla/5.0 (Macintosh; Intel Mac OS X 10.15; rv:131.0) Gecko/20100101 Firefox/131.0" version="24.7.17">
  <diagram name="Page-1" id="7TrwjKe65jKtfrho4vfW">
    <mxGraphModel dx="1137" dy="729" grid="1" gridSize="10" guides="1" tooltips="1" connect="1" arrows="1" fold="1" page="1" pageScale="1" pageWidth="827" pageHeight="1169" math="1" shadow="0">
      <root>
        <mxCell id="0" />
        <mxCell id="1" parent="0" />
        <mxCell id="IGpf7Io0xq6NjucBDHaO-40" value="" style="rounded=1;whiteSpace=wrap;html=1;" parent="1" vertex="1">
          <mxGeometry x="70" y="190" width="220" height="80" as="geometry" />
        </mxCell>
        <mxCell id="IGpf7Io0xq6NjucBDHaO-1" value="" style="endArrow=none;html=1;rounded=1;strokeColor=#006BA4;strokeWidth=3;curved=0;" parent="1" edge="1">
          <mxGeometry width="50" height="50" relative="1" as="geometry">
            <mxPoint x="80" y="120" as="sourcePoint" />
            <mxPoint x="420" y="270" as="targetPoint" />
            <Array as="points">
              <mxPoint x="240" y="120" />
              <mxPoint x="360" y="150" />
            </Array>
          </mxGeometry>
        </mxCell>
        <mxCell id="IGpf7Io0xq6NjucBDHaO-3" value="" style="endArrow=none;html=1;strokeWidth=2;rounded=0;strokeColor=#FF800E;" parent="1" edge="1">
          <mxGeometry width="50" height="50" relative="1" as="geometry">
            <mxPoint x="200" y="90" as="sourcePoint" />
            <mxPoint x="200" y="50" as="targetPoint" />
          </mxGeometry>
        </mxCell>
        <mxCell id="IGpf7Io0xq6NjucBDHaO-7" value="" style="endArrow=none;html=1;strokeWidth=2;rounded=0;strokeColor=#FF800E;" parent="1" edge="1">
          <mxGeometry width="50" height="50" relative="1" as="geometry">
            <mxPoint x="215" y="90" as="sourcePoint" />
            <mxPoint x="185" y="90" as="targetPoint" />
          </mxGeometry>
        </mxCell>
        <mxCell id="IGpf7Io0xq6NjucBDHaO-8" value="" style="endArrow=none;html=1;strokeWidth=2;rounded=0;strokeColor=#FF800E;" parent="1" edge="1">
          <mxGeometry width="50" height="50" relative="1" as="geometry">
            <mxPoint x="215" y="50" as="sourcePoint" />
            <mxPoint x="185" y="50" as="targetPoint" />
          </mxGeometry>
        </mxCell>
        <mxCell id="IGpf7Io0xq6NjucBDHaO-12" value="" style="endArrow=none;html=1;strokeWidth=2;rounded=0;strokeColor=#FF800E;" parent="1" edge="1">
          <mxGeometry width="50" height="50" relative="1" as="geometry">
            <mxPoint x="416" y="170" as="sourcePoint" />
            <mxPoint x="416" y="130" as="targetPoint" />
          </mxGeometry>
        </mxCell>
        <mxCell id="IGpf7Io0xq6NjucBDHaO-13" value="" style="endArrow=none;html=1;strokeWidth=2;rounded=0;strokeColor=#FF800E;" parent="1" edge="1">
          <mxGeometry width="50" height="50" relative="1" as="geometry">
            <mxPoint x="431" y="170" as="sourcePoint" />
            <mxPoint x="401" y="170" as="targetPoint" />
          </mxGeometry>
        </mxCell>
        <mxCell id="IGpf7Io0xq6NjucBDHaO-14" value="" style="endArrow=none;html=1;strokeWidth=2;rounded=0;strokeColor=#FF800E;" parent="1" edge="1">
          <mxGeometry width="50" height="50" relative="1" as="geometry">
            <mxPoint x="431" y="130" as="sourcePoint" />
            <mxPoint x="401" y="130" as="targetPoint" />
          </mxGeometry>
        </mxCell>
        <mxCell id="IGpf7Io0xq6NjucBDHaO-18" value="" style="endArrow=none;html=1;strokeWidth=2;rounded=0;strokeColor=#FF800E;" parent="1" edge="1">
          <mxGeometry width="50" height="50" relative="1" as="geometry">
            <mxPoint x="110" y="200" as="sourcePoint" />
            <mxPoint x="90" y="200" as="targetPoint" />
          </mxGeometry>
        </mxCell>
        <mxCell id="IGpf7Io0xq6NjucBDHaO-19" value="" style="endArrow=none;html=1;strokeWidth=2;rounded=0;strokeColor=#FF800E;" parent="1" edge="1">
          <mxGeometry width="50" height="50" relative="1" as="geometry">
            <mxPoint x="100" y="230" as="sourcePoint" />
            <mxPoint x="100" y="200" as="targetPoint" />
          </mxGeometry>
        </mxCell>
        <mxCell id="IGpf7Io0xq6NjucBDHaO-20" value="" style="endArrow=none;html=1;strokeWidth=2;rounded=0;strokeColor=#FF800E;" parent="1" edge="1">
          <mxGeometry width="50" height="50" relative="1" as="geometry">
            <mxPoint x="110" y="230" as="sourcePoint" />
            <mxPoint x="90" y="230" as="targetPoint" />
          </mxGeometry>
        </mxCell>
        <mxCell id="IGpf7Io0xq6NjucBDHaO-27" value="" style="endArrow=none;html=1;rounded=1;strokeColor=#FF800E;strokeWidth=3;curved=0;fillOpacity=50;strokeOpacity=30;" parent="1" edge="1">
          <mxGeometry width="50" height="50" relative="1" as="geometry">
            <mxPoint x="85" y="254.76" as="sourcePoint" />
            <mxPoint x="115" y="254.76" as="targetPoint" />
          </mxGeometry>
        </mxCell>
        <mxCell id="IGpf7Io0xq6NjucBDHaO-28" value="" style="endArrow=none;html=1;rounded=1;strokeColor=#006BA4;strokeWidth=3;curved=0;" parent="1" edge="1">
          <mxGeometry width="50" height="50" relative="1" as="geometry">
            <mxPoint x="185" y="254.76" as="sourcePoint" />
            <mxPoint x="215" y="254.76" as="targetPoint" />
          </mxGeometry>
        </mxCell>
        <mxCell id="IGpf7Io0xq6NjucBDHaO-30" value="&lt;div&gt;\(\mathrm{Confidence}\)&lt;/div&gt;&lt;div&gt;\(\mathrm{Interval}\)&lt;/div&gt;" style="text;html=1;align=left;verticalAlign=middle;whiteSpace=wrap;rounded=0;" parent="1" vertex="1">
          <mxGeometry x="120" y="200" width="110" height="30" as="geometry" />
        </mxCell>
        <mxCell id="IGpf7Io0xq6NjucBDHaO-32" value="&lt;div&gt;\(\mathrm{DSM}\)&lt;/div&gt;" style="text;html=1;align=left;verticalAlign=middle;whiteSpace=wrap;rounded=0;" parent="1" vertex="1">
          <mxGeometry x="120" y="240" width="75" height="30" as="geometry" />
        </mxCell>
        <mxCell id="IGpf7Io0xq6NjucBDHaO-33" value="&lt;div align=&quot;center&quot;&gt;\(X,Y\)&lt;/div&gt;" style="text;html=1;align=center;verticalAlign=middle;whiteSpace=wrap;rounded=0;" parent="1" vertex="1">
          <mxGeometry x="363" y="255" width="31" height="10" as="geometry" />
        </mxCell>
        <mxCell id="IGpf7Io0xq6NjucBDHaO-36" value="" style="endArrow=classic;html=1;rounded=0;strokeWidth=2;" parent="1" edge="1">
          <mxGeometry width="50" height="50" relative="1" as="geometry">
            <mxPoint x="310" y="260" as="sourcePoint" />
            <mxPoint x="360" y="260" as="targetPoint" />
          </mxGeometry>
        </mxCell>
        <mxCell id="IGpf7Io0xq6NjucBDHaO-37" value="" style="endArrow=classic;html=1;rounded=0;strokeWidth=2;" parent="1" edge="1">
          <mxGeometry width="50" height="50" relative="1" as="geometry">
            <mxPoint x="310" y="261" as="sourcePoint" />
            <mxPoint x="310" y="210" as="targetPoint" />
          </mxGeometry>
        </mxCell>
        <mxCell id="IGpf7Io0xq6NjucBDHaO-38" value="&lt;div&gt;\(\mathrm{DSM}_{true}\)&lt;/div&gt;" style="text;html=1;align=left;verticalAlign=middle;whiteSpace=wrap;rounded=0;" parent="1" vertex="1">
          <mxGeometry x="220" y="245" width="60" height="20" as="geometry" />
        </mxCell>
        <mxCell id="IGpf7Io0xq6NjucBDHaO-39" value="&lt;div align=&quot;center&quot;&gt;\(Z\)&lt;/div&gt;" style="text;html=1;align=center;verticalAlign=middle;whiteSpace=wrap;rounded=0;" parent="1" vertex="1">
          <mxGeometry x="295" y="180" width="31" height="30" as="geometry" />
        </mxCell>
        <mxCell id="ZVtTu8Ij8G8qktrP4e6l-7" value="" style="shape=flexArrow;endArrow=classic;startArrow=classic;html=1;rounded=0;fillColor=#000000;width=3.5483870967741935;startSize=2.3322580645161293;endSize=2.3322580645161293;startWidth=8.877551020408164;endWidth=8.877551020408164;" edge="1" parent="1">
          <mxGeometry width="100" height="100" relative="1" as="geometry">
            <mxPoint x="200" y="120" as="sourcePoint" />
            <mxPoint x="200" y="94" as="targetPoint" />
          </mxGeometry>
        </mxCell>
        <mxCell id="ZVtTu8Ij8G8qktrP4e6l-9" value="" style="shape=flexArrow;endArrow=classic;startArrow=classic;html=1;rounded=0;fillColor=#000000;width=3.5483870967741935;startSize=2.3322580645161293;endSize=2.3322580645161293;startWidth=8.877551020408164;endWidth=8.877551020408164;" edge="1" parent="1">
          <mxGeometry width="100" height="100" relative="1" as="geometry">
            <mxPoint x="416" y="260" as="sourcePoint" />
            <mxPoint x="416" y="170" as="targetPoint" />
          </mxGeometry>
        </mxCell>
        <mxCell id="ZVtTu8Ij8G8qktrP4e6l-10" value="" style="endArrow=none;html=1;rounded=1;strokeColor=#FF800E;strokeWidth=3;curved=0;strokeOpacity=30;" edge="1" parent="1">
          <mxGeometry width="50" height="50" relative="1" as="geometry">
            <mxPoint x="110" y="70" as="sourcePoint" />
            <mxPoint x="470" y="270" as="targetPoint" />
            <Array as="points">
              <mxPoint x="270" y="70" />
              <mxPoint x="390" y="100" />
            </Array>
          </mxGeometry>
        </mxCell>
        <mxCell id="ZVtTu8Ij8G8qktrP4e6l-11" value="&lt;div align=&quot;center&quot;&gt;\(Z_\varepsilon\)&lt;/div&gt;" style="text;html=1;align=center;verticalAlign=middle;whiteSpace=wrap;rounded=0;" vertex="1" parent="1">
          <mxGeometry x="209" y="80" width="31" height="30" as="geometry" />
        </mxCell>
        <mxCell id="ZVtTu8Ij8G8qktrP4e6l-12" value="&lt;div align=&quot;center&quot;&gt;\(Z_\varepsilon\)&lt;/div&gt;" style="text;html=1;align=center;verticalAlign=middle;whiteSpace=wrap;rounded=0;" vertex="1" parent="1">
          <mxGeometry x="420" y="210" width="31" height="30" as="geometry" />
        </mxCell>
      </root>
    </mxGraphModel>
  </diagram>
</mxfile>
